<?xml version="1.0" standalone="no"?>
<!DOCTYPE svg PUBLIC "-//W3C//DTD SVG 20010904//EN"
 "http://www.w3.org/TR/2001/REC-SVG-20010904/DTD/svg10.dtd">
<svg version="1.0" xmlns="http://www.w3.org/2000/svg"
 width="500.000000pt" height="500.000000pt" viewBox="0 0 500.000000 500.000000"
 preserveAspectRatio="xMidYMid meet">
<metadata>
Created by potrace 1.16, written by Peter Selinger 2001-2019
</metadata>
<g transform="translate(0.000000,500.000000) scale(0.100000,-0.100000)"
fill="#000000" stroke="none">
<path d="M722 3200 c-21 -13 -35 -31 -39 -50 -7 -39 -59 -65 -100 -49 -65 24
-147 -48 -159 -141 -5 -38 -13 -53 -36 -70 -40 -29 -68 -93 -68 -156 0 -47 -4
-55 -40 -92 -33 -33 -40 -46 -40 -79 0 -25 8 -50 20 -66 20 -25 20 -28 5 -56
-19 -38 -19 -71 1 -99 14 -20 14 -24 0 -44 -25 -35 -19 -58 24 -99 30 -28 40
-46 40 -69 0 -34 38 -80 65 -80 12 0 15 -5 9 -22 -17 -53 7 -113 51 -124 15
-4 25 -13 25 -24 0 -28 47 -77 85 -90 25 -8 45 -8 75 0 43 12 90 52 90 76 0
25 25 15 38 -16 7 -16 22 -32 33 -35 76 -24 209 77 209 158 0 32 -24 83 -42
90 -9 3 -6 12 11 30 20 22 24 39 29 116 2 50 8 91 12 91 4 0 9 -43 12 -95 3
-79 7 -98 25 -117 l22 -23 -25 -28 c-44 -51 -28 -125 40 -185 71 -62 151 -65
178 -7 15 33 24 32 43 -5 30 -59 129 -83 182 -44 16 11 37 37 48 58 11 20 34
45 52 56 36 22 52 74 34 109 -10 17 -9 21 4 21 27 0 65 46 65 80 0 23 10 41
40 69 43 41 50 72 26 107 -12 17 -12 22 0 39 18 24 17 72 0 105 -12 21 -12 27
5 49 12 15 19 40 19 69 0 38 -5 50 -39 83 -35 35 -38 44 -39 93 0 65 -23 117
-67 154 -25 21 -34 38 -39 74 -13 89 -91 161 -153 141 -41 -14 -91 6 -98 39
-4 15 -20 39 -37 54 -28 23 -37 25 -87 20 -31 -3 -79 -6 -107 -5 -63 0 -85
-21 -92 -91 -6 -70 -18 -71 -25 -2 -8 71 -30 93 -96 93 -25 -1 -71 2 -101 5
-44 4 -61 1 -88 -16z m144 -15 c37 -37 30 -82 -16 -113 -19 -13 -38 -33 -41
-45 -14 -53 -18 -87 -10 -87 5 0 12 22 16 50 6 42 12 53 41 71 46 28 58 52 45
91 -16 45 -14 48 21 48 48 0 68 -24 68 -85 0 -65 -16 -100 -57 -119 -18 -9
-34 -21 -34 -28 -1 -7 -2 -19 -3 -26 0 -7 -11 -21 -23 -30 -21 -17 -27 -31
-24 -63 0 -9 33 -42 71 -73 74 -60 82 -77 58 -129 -17 -36 -47 -35 -83 3 -28
29 -65 41 -65 20 0 -5 6 -7 13 -4 7 2 26 -9 42 -26 18 -18 39 -30 55 -30 14 0
31 -5 38 -12 16 -16 16 -186 0 -221 -12 -25 -17 -27 -58 -25 -36 2 -46 7 -48
23 -2 11 -15 30 -28 43 -24 23 -23 46 2 56 9 3 14 20 14 44 0 30 -7 45 -35 72
-19 19 -35 29 -35 24 0 -6 14 -23 30 -39 35 -34 39 -73 10 -98 -28 -23 -25
-55 5 -69 18 -8 25 -19 25 -39 0 -31 11 -36 85 -41 l40 -3 3 -54 c3 -50 2 -53
-14 -40 -9 7 -42 17 -73 21 -113 14 -121 18 -121 48 0 41 -51 75 -108 73 -24
-1 -49 -6 -56 -12 -9 -8 -19 -4 -36 14 -13 14 -28 25 -34 25 -6 0 3 -14 20
-30 30 -30 31 -31 78 -18 43 11 51 11 84 -7 45 -24 56 -70 22 -100 -11 -10
-20 -24 -20 -31 0 -7 14 1 30 18 21 21 36 28 48 23 9 -4 46 -10 81 -14 49 -6
68 -13 82 -30 25 -30 24 -72 -2 -105 -18 -23 -27 -26 -82 -26 -80 0 -91 8 -92
64 0 25 -3 46 -7 46 -14 0 -8 -85 7 -107 13 -18 12 -22 -4 -38 -15 -13 -24
-14 -40 -6 -35 19 -51 53 -51 110 0 36 -6 64 -20 86 -35 57 -128 115 -183 115
-13 0 -34 11 -46 24 -13 14 -29 22 -37 19 -10 -4 -14 4 -14 30 0 58 67 96 120
67 15 -8 25 -2 54 30 39 44 45 73 20 101 -15 17 -13 22 37 73 53 54 55 55 116
57 39 2 68 -2 78 -11 23 -19 28 -6 6 14 -16 15 -18 22 -9 36 10 16 2 29 -56
90 -48 52 -65 77 -60 88 3 10 11 37 15 62 8 39 7 47 -11 62 -52 43 6 117 93
118 28 0 45 -7 63 -25z m442 0 c40 -34 50 -73 22 -92 -25 -18 -29 -93 -5 -113
8 -7 15 -16 15 -19 0 -4 -30 -40 -66 -80 -49 -55 -64 -79 -60 -94 3 -12 -2
-29 -11 -39 -9 -10 -11 -18 -5 -18 6 0 14 5 17 11 5 6 32 8 78 3 70 -6 73 -8
114 -53 46 -51 50 -62 28 -81 -24 -20 -18 -44 23 -91 37 -41 40 -42 68 -30 56
23 104 -13 104 -78 0 -23 -4 -29 -15 -25 -9 4 -23 -4 -36 -20 -15 -19 -30 -26
-55 -26 -54 0 -147 -68 -180 -132 -8 -15 -13 -49 -12 -79 2 -47 0 -54 -31 -81
l-33 -30 -24 23 c-20 19 -21 24 -9 33 19 14 33 106 16 106 -6 0 -11 -16 -11
-37 0 -57 -11 -66 -79 -71 -54 -4 -62 -2 -85 21 -18 18 -26 37 -26 62 0 49 28
75 82 75 23 0 57 5 75 12 39 14 61 5 80 -33 12 -23 13 -23 13 -3 0 12 -7 27
-15 34 -8 7 -15 28 -15 46 0 28 6 38 33 54 38 24 62 25 101 5 28 -15 31 -14
58 12 15 15 28 31 28 37 0 5 -13 -3 -29 -18 -24 -23 -32 -26 -49 -17 -54 29
-148 -6 -158 -59 -5 -21 -15 -30 -44 -39 -20 -6 -52 -11 -69 -11 -18 0 -46 -7
-62 -16 l-30 -15 3 53 3 53 58 3 c55 3 58 4 64 33 3 16 14 34 24 40 25 13 24
54 -1 86 -11 14 -20 30 -20 34 0 5 16 27 36 49 43 48 34 53 -13 8 -39 -38 -45
-86 -13 -106 27 -17 25 -40 -5 -64 -14 -11 -25 -30 -25 -44 0 -22 -4 -24 -45
-24 -37 0 -45 3 -45 18 0 10 -5 23 -10 28 -6 6 -13 47 -17 92 -7 96 8 132 56
132 16 0 35 7 42 17 8 9 27 22 44 29 26 11 27 14 12 20 -13 5 -28 -2 -51 -25
-33 -32 -76 -42 -76 -17 0 7 -7 19 -15 26 -29 24 -16 49 54 105 90 72 103 106
57 143 -13 10 -26 32 -28 48 -2 23 -10 31 -35 39 -20 5 -33 16 -33 26 0 9 -7
23 -16 30 -22 18 -14 101 12 130 22 24 82 24 75 -1 -16 -58 -13 -77 19 -103
17 -15 35 -27 40 -27 5 0 12 -17 15 -37 11 -66 25 -83 19 -23 -4 35 -12 59
-22 65 -45 28 -73 65 -67 87 19 67 108 90 163 43z m-710 -125 c2 -13 43 -67
91 -120 130 -143 124 -135 111 -159 -9 -18 -20 -21 -69 -21 l-59 0 -63 75
c-35 41 -67 75 -72 75 -5 0 11 -23 35 -51 23 -28 53 -64 65 -79 l23 -28 -39
-43 -39 -44 -36 40 c-31 35 -35 47 -36 94 0 48 -4 57 -35 87 -40 37 -45 74
-19 130 24 50 61 76 103 72 30 -2 37 -7 39 -28z m936 9 c33 -26 52 -62 60
-114 5 -37 4 -41 -27 -60 -30 -19 -32 -25 -37 -86 -4 -59 -9 -71 -42 -107
l-37 -41 -36 44 c-23 28 -34 49 -29 57 4 7 32 41 62 76 30 34 52 65 50 68 -3
3 -34 -29 -69 -70 l-64 -74 -56 -1 c-43 -1 -60 3 -73 18 -16 18 -12 24 89 137
65 73 105 127 105 141 0 38 62 45 104 12z m-546 -119 c2 -19 -2 -52 -9 -73
-10 -30 -10 -43 -1 -58 7 -10 12 -32 12 -49 l0 -31 -65 53 c-71 57 -78 76 -40
110 14 12 25 32 25 44 0 26 25 45 55 41 15 -1 21 -11 23 -37z m125 26 c9 -7
17 -23 17 -34 0 -12 11 -32 25 -46 14 -14 25 -30 25 -37 0 -7 -19 -28 -42 -48
-23 -20 -52 -46 -64 -57 -13 -12 -25 -19 -28 -16 -12 11 -6 51 12 81 16 30 16
32 0 62 -41 72 -3 138 55 95z m-640 -104 c12 -11 17 -30 17 -74 0 -56 -2 -61
-45 -107 -31 -33 -45 -57 -45 -76 0 -47 -25 -65 -92 -65 -46 0 -58 3 -58 15 0
27 27 69 57 88 25 17 28 24 25 62 -6 73 33 156 82 175 22 8 31 6 59 -18z
m1183 -14 c29 -31 46 -88 43 -140 -2 -39 2 -47 40 -85 30 -30 42 -49 39 -65
-3 -20 -10 -23 -52 -26 -59 -4 -96 24 -96 71 0 22 -13 43 -45 78 -42 45 -45
52 -45 102 0 55 10 77 45 95 22 12 41 4 71 -30z m-1153 -267 c38 -42 54 -67
48 -75 -13 -15 -127 -11 -153 6 -21 14 -21 16 -5 38 9 14 17 36 17 50 0 25 18
53 31 48 3 -2 31 -32 62 -67z m1117 16 c0 -17 8 -39 17 -49 15 -17 15 -20 1
-35 -21 -21 -147 -27 -155 -7 -3 7 21 43 53 79 62 70 84 73 84 12z m-1229 -96
c19 -16 22 -22 12 -32 -7 -7 -13 -33 -13 -58 0 -54 -29 -91 -72 -91 -55 0 -74
75 -31 123 15 16 15 19 -5 40 -12 13 -22 26 -22 30 0 4 24 7 54 7 38 0 61 -6
77 -19z m1365 -10 l-27 -28 20 -34 c26 -43 26 -69 1 -97 -26 -28 -50 -28 -84
-1 -22 18 -26 28 -26 74 0 30 -5 57 -11 60 -7 5 -2 16 12 31 19 20 32 24 83
24 l60 0 -28 -29z m-1176 -195 c110 -72 140 -156 72 -205 -27 -19 -27 -19 -56
5 -23 20 -26 27 -16 40 19 22 6 27 -15 4 -17 -19 -16 -20 14 -46 38 -31 33
-46 -12 -32 -72 24 -82 43 -47 90 13 18 17 29 9 26 -8 -3 -22 -19 -32 -36 -14
-23 -16 -36 -8 -50 9 -17 6 -21 -32 -31 -72 -21 -117 12 -117 84 0 12 -7 25
-15 29 -64 24 114 165 190 150 17 -3 46 -16 65 -28z m1025 4 c51 -25 120 -94
111 -112 -3 -7 -10 -20 -15 -28 -6 -8 -13 -32 -16 -52 -8 -53 -48 -74 -106
-57 -37 11 -39 15 -34 40 6 28 -18 79 -37 79 -6 0 -3 -12 6 -26 27 -41 17 -64
-36 -84 -26 -10 -50 -15 -53 -12 -3 3 9 20 26 38 27 28 30 36 19 49 -7 8 -17
15 -22 15 -6 0 -5 -7 2 -16 11 -13 9 -19 -12 -41 -25 -24 -26 -24 -57 -9 -28
15 -31 21 -31 61 0 39 6 52 42 91 76 82 137 101 213 64z m-1032 -253 c18 -8
47 -26 65 -42 l33 -27 -28 -16 c-15 -8 -42 -14 -59 -13 -21 1 -42 -7 -62 -24
-29 -25 -32 -25 -66 -11 -59 25 -63 86 -7 123 39 26 77 29 124 10z m397 -17
c28 -28 30 -87 4 -128 -45 -70 -150 -105 -189 -62 -17 19 -17 21 5 63 20 37
22 48 12 76 -10 27 -9 34 8 51 29 29 132 28 160 0z m248 4 c20 -13 21 -21 16
-67 -5 -43 -3 -56 14 -77 18 -22 19 -27 6 -52 -20 -38 -74 -38 -129 0 -86 60
-107 140 -50 190 32 27 108 30 143 6z m370 -4 c26 -16 32 -26 32 -55 0 -42
-29 -75 -65 -75 -14 0 -34 9 -45 20 -12 12 -33 20 -55 20 -34 0 -85 18 -85 30
0 7 50 47 85 67 31 19 96 15 133 -7z m-884 -92 c27 -37 20 -76 -19 -115 -33
-33 -38 -35 -87 -31 -44 5 -57 11 -80 39 -40 47 -37 79 3 43 26 -23 70 -6 88
34 12 26 42 48 73 51 4 1 14 -9 22 -21z m691 0 c14 -6 25 -18 25 -26 0 -39 76
-72 95 -42 3 6 10 10 16 10 18 0 9 -30 -18 -60 -35 -39 -95 -50 -140 -27 -36
19 -67 78 -57 110 14 48 33 56 79 35z"/>
</g>
</svg>
